<svg xmlns="http://www.w3.org/2000/svg" viewBox="0 0 169.33 147.11"><defs><style>.cls-1{fill:#1d1d1b;}.cls-2{fill:none;stroke:#1d1d1b;stroke-miterlimit:10;stroke-width:6px;}</style></defs><title>LOGO</title><g id="Calque_2" data-name="Calque 2"><g id="Calque_1-2" data-name="Calque 1"><path class="cls-1" d="M25.22,67.44V30.88h4.06L41.47,43.07v.06l2,2L57.72,30.88h4.06V67.44H55.69V41L43.5,53.23,31.32,41v26.4Z"/><path class="cls-1" d="M66.23,67.44V30.88h6.09V61.35H96.7V30.88h6.09V67.44Z"/><path class="cls-1" d="M107.23,67.44V30.88h4.07l26.4,26.41V30.88h6.1V67.44h-4.07L113.33,41v26.4Z"/><path class="cls-1" d="M25.22,120.44V83.88h6.1V98.1H55.69V83.88h6.09v36.56H55.69V104.19H31.32v16.25Z"/><path class="cls-1" d="M66.23,120.44V83.88h6.09v26.41L84.51,98.1,96.7,110.29V83.88h6.09v36.56H98.73L84.51,106.23l-2,2L70.29,120.44Z"/><path class="cls-1" d="M107.23,120.44V83.88H143.8v36.56h-6.1V104.19H113.33v16.25ZM137.7,98.1V90H113.33V98.1Z"/><rect class="cls-2" x="3" y="3" width="163.33" height="141.11"/></g></g></svg>